<svg data-v-423bf9ae="" xmlns="http://www.w3.org/2000/svg" viewBox="0 0 308 90" class="iconLeft"><!----><!----><!----><g data-v-423bf9ae="" id="61912d4b-6c7f-4d83-9e5c-983eef479683" fill="white" transform="matrix(5.484460905061369,0,0,5.484460905061369,66.08844201108474,16.59049324370976)"><path d="M6.13 8.75L6.13 0L4.67 0L4.67 8.46Q4.67 9.48 3.06 9.48L3.06 9.48Q1.46 9.48 1.46 8.46L1.46 8.46L1.46 7.29L0 7.29L0 8.75Q0 10.65 3.06 10.65L3.06 10.65Q6.13 10.65 6.13 8.75L6.13 8.75ZM12.25 4.96L12.25 8.46Q12.25 9.48 10.50 9.48L10.50 9.48Q8.75 9.48 8.75 8.46L8.75 8.46L8.75 4.96Q8.75 3.94 10.50 3.94L10.50 3.94Q12.25 3.94 12.25 4.96L12.25 4.96ZM13.71 8.75L13.71 4.67Q13.71 2.77 10.50 2.77L10.50 2.77Q7.29 2.77 7.29 4.67L7.29 4.67L7.29 8.75Q7.29 10.65 10.50 10.65L10.50 10.65Q13.71 10.65 13.71 8.75L13.71 8.75ZM16.33 10.50L14.88 10.50L14.88-0.29L16.33-0.29L16.33 3.94Q16.33 2.77 18.81 2.77Q21.29 2.77 21.29 4.67L21.29 4.67L21.29 8.75Q21.29 10.65 18.81 10.65Q16.33 10.65 16.33 9.48L16.33 9.48L16.33 10.50ZM16.33 4.96L16.33 4.96L16.33 8.46Q16.33 9.48 18.08 9.48L18.08 9.48Q19.83 9.48 19.83 8.46L19.83 8.46L19.83 4.96Q19.83 3.94 18.08 3.94L18.08 3.94Q16.33 3.94 16.33 4.96ZM23.92 0L22.46 0L22.46 10.50L23.92 10.50L23.92 5.83L27.42 5.83L27.42 10.50L28.88 10.50L28.88 0L27.42 0L27.42 4.67L23.92 4.67L23.92 0ZM36.46 10.50L36.46 2.92L35.00 2.92L35.00 8.46Q35.00 9.48 33.25 9.48L33.25 9.48Q31.50 9.48 31.50 8.46L31.50 8.46L31.50 2.92L30.04 2.92L30.04 8.75Q30.04 10.65 32.52 10.65Q35.00 10.65 35.00 9.48L35.00 9.48L35.00 10.50L36.46 10.50ZM39.08 10.50L37.63 10.50L37.63-0.29L39.08-0.29L39.08 3.94Q39.08 2.77 41.56 2.77Q44.04 2.77 44.04 4.67L44.04 4.67L44.04 8.75Q44.04 10.65 41.56 10.65Q39.08 10.65 39.08 9.48L39.08 9.48L39.08 10.50ZM39.08 4.96L39.08 4.96L39.08 8.46Q39.08 9.48 40.83 9.48L40.83 9.48Q42.58 9.48 42.58 8.46L42.58 8.46L42.58 4.96Q42.58 3.94 40.83 3.94L40.83 3.94Q39.08 3.94 39.08 4.96Z"></path></g><!----><g data-v-423bf9ae="" id="f982a712-0b9b-4331-a985-31590f09c866" transform="matrix(2.8125,0,0,2.8125,-21.194407999515533,0)" stroke="none" fill="white"><path d="M18.396 26.495L7.807 15.905 18.432 5.28l.707.707-9.918 9.918 9.882 9.883z"></path><path d="M23.194 1v4.194H19V1h4.194m1-1H18v6.194h6.194V0zM23.194 26.806V31H19v-4.194h4.194m1-1H18V32h6.194v-6.194z"></path></g><!----></svg>